<svg width="25" height="25" viewBox="0 0 25 25" fill="none" xmlns="http://www.w3.org/2000/svg">
<path d="M12.5 10.02C12.0095 10.02 11.53 10.1654 11.1222 10.438C10.7144 10.7105 10.3965 11.0978 10.2088 11.5509C10.0211 12.0041 9.97196 12.5028 10.0677 12.9838C10.1633 13.4649 10.3995 13.9068 10.7464 14.2536C11.0932 14.6005 11.5351 14.8367 12.0162 14.9323C12.4972 15.028 12.9959 14.9789 13.4491 14.7912C13.9022 14.6035 14.2895 14.2856 14.562 13.8778C14.8346 13.47 14.98 12.9905 14.98 12.5C14.98 12.1743 14.9159 11.8518 14.7912 11.5509C14.6666 11.2501 14.4839 10.9767 14.2536 10.7464C14.0233 10.5161 13.7499 10.3334 13.4491 10.2088C13.1482 10.0841 12.8257 10.02 12.5 10.02ZM22.43 7.57C22.4247 6.79776 22.2825 6.03257 22.01 5.31C21.8093 4.78126 21.4987 4.30109 21.0988 3.90119C20.6989 3.50128 20.2187 3.19072 19.69 2.99C18.9674 2.71746 18.2022 2.57526 17.43 2.57C16.14 2.5 15.76 2.5 12.5 2.5C9.24 2.5 8.86 2.5 7.57 2.57C6.79776 2.57526 6.03257 2.71746 5.31 2.99C4.78126 3.19072 4.30109 3.50128 3.90119 3.90119C3.50128 4.30109 3.19072 4.78126 2.99 5.31C2.71746 6.03257 2.57526 6.79776 2.57 7.57C2.5 8.86 2.5 9.24 2.5 12.5C2.5 15.76 2.5 16.14 2.57 17.43C2.58076 18.205 2.72277 18.9725 2.99 19.7C3.18983 20.2263 3.50013 20.7037 3.9 21.1C4.29819 21.5023 4.77939 21.8129 5.31 22.01C6.03257 22.2825 6.79776 22.4247 7.57 22.43C8.86 22.5 9.24 22.5 12.5 22.5C15.76 22.5 16.14 22.5 17.43 22.43C18.2022 22.4247 18.9674 22.2825 19.69 22.01C20.2206 21.8129 20.7018 21.5023 21.1 21.1C21.4999 20.7037 21.8102 20.2263 22.01 19.7C22.2823 18.9739 22.4244 18.2055 22.43 17.43C22.5 16.14 22.5 15.76 22.5 12.5C22.5 9.24 22.5 8.86 22.43 7.57ZM19.89 15.57C19.8579 16.1871 19.7262 16.795 19.5 17.37C19.3059 17.8497 19.0173 18.2854 18.6514 18.6514C18.2854 19.0173 17.8497 19.3059 17.37 19.5C16.7895 19.7136 16.1783 19.8318 15.56 19.85H9.44C8.82173 19.8318 8.21049 19.7136 7.63 19.5C7.1341 19.3157 6.68628 19.0217 6.32 18.64C5.95767 18.2813 5.67784 17.8479 5.5 17.37C5.28556 16.7901 5.17061 16.1782 5.16 15.56V9.44C5.17061 8.82183 5.28556 8.20988 5.5 7.63C5.68428 7.1341 5.97827 6.68628 6.36 6.32C6.72033 5.95962 7.15326 5.68009 7.63 5.5C8.21049 5.28641 8.82173 5.16821 9.44 5.15H15.56C16.1783 5.16821 16.7895 5.28641 17.37 5.5C17.8659 5.68428 18.3137 5.97827 18.68 6.36C19.0423 6.71875 19.3222 7.15213 19.5 7.63C19.7136 8.21049 19.8318 8.82173 19.85 9.44V12.5C19.85 14.56 19.92 14.77 19.89 15.56V15.57ZM18.29 8.13C18.1709 7.80698 17.9832 7.51364 17.7398 7.27021C17.4964 7.02678 17.203 6.83906 16.88 6.72C16.4365 6.56626 15.9693 6.49179 15.5 6.5H9.5C9.02827 6.50461 8.56107 6.59263 8.12 6.76C7.80193 6.87366 7.51169 7.05371 7.26858 7.2882C7.02547 7.52269 6.83506 7.80624 6.71 8.12C6.56478 8.56537 6.49383 9.0316 6.5 9.5V15.5C6.50991 15.9712 6.59777 16.4375 6.76 16.88C6.87906 17.203 7.06678 17.4964 7.31021 17.7398C7.55364 17.9832 7.84698 18.1709 8.17 18.29C8.59667 18.4469 9.04565 18.5347 9.5 18.55H15.5C15.9717 18.5454 16.4389 18.4574 16.88 18.29C17.203 18.1709 17.4964 17.9832 17.7398 17.7398C17.9832 17.4964 18.1709 17.203 18.29 16.88C18.4574 16.4389 18.5454 15.9717 18.55 15.5V9.5C18.5503 9.0278 18.4621 8.55972 18.29 8.12V8.13ZM12.5 16.32C11.9988 16.32 11.5026 16.2211 11.0397 16.029C10.5768 15.8369 10.1563 15.5554 9.80238 15.2005C9.44846 14.8457 9.16803 14.4245 8.97714 13.9611C8.78626 13.4977 8.68868 13.0012 8.69 12.5C8.69 11.7441 8.9143 11.0051 9.33449 10.3767C9.75468 9.74828 10.3519 9.25866 11.0505 8.96983C11.7491 8.681 12.5177 8.60594 13.2589 8.75415C14.0002 8.90236 14.6808 9.26717 15.2147 9.80241C15.7485 10.3376 16.1116 11.0192 16.2578 11.7609C16.4041 12.5026 16.327 13.271 16.0363 13.9688C15.7457 14.6666 15.2545 15.2625 14.625 15.6811C13.9955 16.0996 13.2559 16.322 12.5 16.32ZM16.5 9.43C16.2789 9.4066 16.0744 9.30222 15.9257 9.13697C15.777 8.97172 15.6947 8.75729 15.6947 8.535C15.6947 8.31271 15.777 8.09828 15.9257 7.93303C16.0744 7.76778 16.2789 7.6634 16.5 7.64C16.7211 7.6634 16.9256 7.76778 17.0743 7.93303C17.223 8.09828 17.3053 8.31271 17.3053 8.535C17.3053 8.75729 17.223 8.97172 17.0743 9.13697C16.9256 9.30222 16.7211 9.4066 16.5 9.43Z" fill="white"/>
</svg>
