<svg width="24" height="24" viewBox="0 0 24 24" fill="none" xmlns="http://www.w3.org/2000/svg">
<path d="M11.716 0.822109C11.8091 0.552661 12.1904 0.552587 12.2834 0.822109L14.8957 8.3973C14.9374 8.51829 15.0519 8.59945 15.1799 8.59945H23.135C23.4195 8.59945 23.5448 8.95924 23.3215 9.13559L16.9592 14.159C16.8626 14.2353 16.8222 14.3634 16.8576 14.4813L19.1672 22.1717C19.2487 22.4442 18.9402 22.667 18.7072 22.5037L12.1711 17.9207C12.0678 17.8484 11.9307 17.8483 11.8273 17.9207L5.29122 22.5037C5.05828 22.6668 4.74983 22.4441 4.83126 22.1717L7.14083 14.4813C7.17622 14.3634 7.13586 14.2353 7.03926 14.159L0.676959 9.13559C0.453723 8.95923 0.57897 8.59945 0.863483 8.59945H8.81856C8.94654 8.59945 9.06101 8.51829 9.10274 8.3973L11.716 0.822109Z" fill="white"/>
</svg>
