<svg width="25" height="25" viewBox="0 0 25 25" fill="none" xmlns="http://www.w3.org/2000/svg">
<path d="M10.5 15.5L15.69 12.5L10.5 9.5V15.5ZM22.06 7.67C22.19 8.14 22.28 8.77 22.34 9.57C22.41 10.37 22.44 11.06 22.44 11.66L22.5 12.5C22.5 14.69 22.34 16.3 22.06 17.33C21.81 18.23 21.23 18.81 20.33 19.06C19.86 19.19 19 19.28 17.68 19.34C16.38 19.41 15.19 19.44 14.09 19.44L12.5 19.5C8.31 19.5 5.7 19.34 4.67 19.06C3.77 18.81 3.19 18.23 2.94 17.33C2.81 16.86 2.72 16.23 2.66 15.43C2.59 14.63 2.56 13.94 2.56 13.34L2.5 12.5C2.5 10.31 2.66 8.7 2.94 7.67C3.19 6.77 3.77 6.19 4.67 5.94C5.14 5.81 6 5.72 7.32 5.66C8.62 5.59 9.81 5.56 10.91 5.56L12.5 5.5C16.69 5.5 19.3 5.66 20.33 5.94C21.23 6.19 21.81 6.77 22.06 7.67Z" fill="white"/>
</svg>
